<?xml version="1.0" standalone="no"?>
<!DOCTYPE svg PUBLIC "-//W3C//DTD SVG 20010904//EN"
 "http://www.w3.org/TR/2001/REC-SVG-20010904/DTD/svg10.dtd">
<svg version="1.0" xmlns="http://www.w3.org/2000/svg"
 width="577.000000pt" height="433.000000pt" viewBox="0 0 577.000000 433.000000"
 preserveAspectRatio="xMidYMid meet">

<g transform="translate(0.000000,433.000000) scale(0.100000,-0.100000)"
fill="#000000" stroke="none">
<path d="M1220 2435 l0 -1675 462 0 461 0 64 35 c95 52 169 109 251 193 115
117 186 242 233 412 21 75 24 106 23 255 0 145 -3 182 -23 250 -110 391 -442
665 -848 700 l-83 8 0 183 0 184 41 0 c23 0 70 -5 104 -11 l62 -12 73 39 c88
47 201 161 246 249 155 295 28 673 -273 818 l-88 42 -352 3 -353 3 0 -1676z"/>
<path d="M2364 4033 c68 -99 88 -140 117 -233 30 -98 32 -282 4 -375 -59 -198
-185 -356 -354 -444 -47 -25 -70 -42 -61 -45 183 -65 253 -102 390 -208 97
-76 146 -125 219 -222 170 -227 250 -486 238 -776 -9 -209 -39 -336 -122 -505
-65 -131 -228 -328 -360 -432 l-40 -32 1078 0 1077 -1 0 1675 0 1675 -1119 0
-1120 0 53 -77z"/>
<path d="M1220 429 l0 -211 196 4 c195 3 195 3 214 28 28 36 28 132 0 160 -19
19 -19 22 -5 43 9 12 15 43 15 73 0 108 -14 114 -245 114 l-175 0 0 -211z
m324 135 c22 -8 22 -80 0 -88 -9 -3 -67 -6 -130 -6 l-114 0 0 50 0 50 114 0
c63 0 121 -3 130 -6z m20 -180 c10 -26 7 -69 -6 -82 -8 -8 -53 -12 -135 -12
l-123 0 0 55 0 55 129 0 c108 0 130 -3 135 -16z"/>
<path d="M1941 606 c-12 -18 -21 -36 -21 -40 0 -3 -38 -74 -84 -159 -111 -200
-107 -187 -57 -187 38 0 42 2 61 44 l20 44 122 4 c68 2 128 2 135 0 7 -2 24
-24 38 -48 25 -42 28 -44 71 -44 l46 0 -27 48 c-14 26 -68 120 -118 209 l-92
163 -37 0 c-31 0 -40 -5 -57 -34z m103 -130 c25 -46 46 -87 46 -90 0 -3 -40
-6 -90 -6 -58 0 -90 4 -90 11 0 9 82 168 87 169 1 0 22 -38 47 -84z"/>
<path d="M2300 634 c0 -5 80 -99 168 -194 l42 -47 0 -87 0 -86 35 0 35 0 0 89
0 89 86 93 c47 52 94 106 105 122 l20 27 -48 -1 c-47 0 -50 -2 -108 -70 -33
-38 -66 -77 -72 -86 -12 -15 -15 -14 -41 10 -16 15 -51 55 -78 87 -47 58 -51
60 -96 60 -27 0 -48 -3 -48 -6z"/>
<path d="M2900 430 l0 -211 43 3 42 3 2 74 c1 40 3 75 5 77 2 2 59 -33 127
-77 l124 -80 66 3 66 3 -55 34 c-155 95 -270 175 -263 181 4 4 71 49 148 101
l139 94 -57 3 c-61 3 -49 9 -251 -131 -21 -15 -42 -24 -45 -21 -3 3 -6 38 -6
77 l0 72 -42 3 -43 3 0 -211z"/>
<path d="M3598 538 c-30 -57 -73 -134 -94 -173 -21 -38 -46 -83 -56 -100 -25
-42 -23 -45 22 -45 36 0 41 4 65 44 l26 45 122 3 c67 2 127 2 133 0 6 -1 20
-23 32 -47 21 -43 23 -45 67 -45 25 0 45 3 45 7 0 3 -21 42 -47 87 -25 45 -60
106 -76 136 -98 180 -105 190 -145 190 -37 0 -38 -1 -94 -102z m145 -67 c25
-44 42 -82 39 -85 -7 -8 -182 -7 -182 0 0 12 85 164 91 164 4 0 27 -36 52 -79z"/>
<path d="M4070 430 l0 -210 45 0 45 0 0 75 0 75 51 0 c50 0 54 -2 135 -76 l83
-75 58 3 58 3 -85 70 c-74 62 -81 70 -60 73 80 10 100 39 100 143 0 65 -2 73
-29 100 l-29 29 -186 0 -186 0 0 -210z m335 75 l0 -60 -122 -3 -123 -3 0 66 0
66 123 -3 122 -3 0 -60z"/>
</g>
</svg>
